<?xml version="1.0" encoding="UTF-8" standalone="no"?>
<!-- Created with Inkscape (http://www.inkscape.org/) -->

<svg
   xmlns:dc="http://purl.org/dc/elements/1.1/"
   xmlns:cc="http://creativecommons.org/ns#"
   xmlns:rdf="http://www.w3.org/1999/02/22-rdf-syntax-ns#"
   xmlns:svg="http://www.w3.org/2000/svg"
   xmlns="http://www.w3.org/2000/svg"
   xmlns:sodipodi="http://sodipodi.sourceforge.net/DTD/sodipodi-0.dtd"
   xmlns:inkscape="http://www.inkscape.org/namespaces/inkscape"
   width="174.85851"
   height="37.354858"
   viewBox="0 0 46.264644 9.8834731"
   version="1.1"
   id="svg11131"
   inkscape:version="0.92.0 r15299"
   sodipodi:docname="heartland.svg">
  <defs
     id="defs11125">
    <clipPath
       id="clipPath10686"
       clipPathUnits="userSpaceOnUse">
      <path
         inkscape:connector-curvature="0"
         id="path10684"
         d="m 76.535,522.466 h 130.394 v 27.266 H 76.535 Z" />
    </clipPath>
  </defs>
  <sodipodi:namedview
     id="base"
     pagecolor="#ffffff"
     bordercolor="#666666"
     borderopacity="1.0"
     inkscape:pageopacity="0.0"
     inkscape:pageshadow="2"
     inkscape:zoom="4.612946"
     inkscape:cx="86.929238"
     inkscape:cy="18.176785"
     inkscape:document-units="mm"
     inkscape:current-layer="layer1"
     showgrid="false"
     fit-margin-top="0"
     fit-margin-left="0"
     fit-margin-right="0"
     fit-margin-bottom="0"
     units="px"
     inkscape:window-width="1280"
     inkscape:window-height="744"
     inkscape:window-x="-4"
     inkscape:window-y="-4"
     inkscape:window-maximized="1" />
  <metadata
     id="metadata11128">
    <rdf:RDF>
      <cc:Work
         rdf:about="">
        <dc:format>image/svg+xml</dc:format>
        <dc:type
           rdf:resource="http://purl.org/dc/dcmitype/StillImage" />
        <dc:title></dc:title>
      </cc:Work>
    </rdf:RDF>
  </metadata>
  <g
     inkscape:label="Layer 1"
     inkscape:groupmode="layer"
     id="layer1"
     transform="translate(-80.565449,-167.19366)">
    <g
       id="g11296"
       transform="translate(0.13229259,-0.13228937)">
      <path
         d="m 85.955533,167.54166 c -0.131233,0.004 -0.292806,0.0116 -0.456494,0.0194 -0.248003,0.0116 -0.504473,0.0236 -0.664987,0.0236 -0.277283,0 -0.732719,-0.0229 -1.100666,-0.043 -0.02857,0 -0.0575,0.0233 -0.0575,0.0681 v 0.14922 c 0,0.0459 0.01976,0.0543 0.05821,0.0667 0.01587,0.005 0.04374,0.01 0.07973,0.0162 0.131939,0.024 0.377472,0.0684 0.481895,0.18874 0.08572,0.0854 0.08572,0.18309 0.08572,0.4445 v 1.15006 h -2.183695 v -1.15006 c 0,-0.26247 0,-0.36019 0.07585,-0.44556 0.114653,-0.12206 0.357717,-0.1658 0.488245,-0.18944 0.03104,-0.005 0.05609,-0.01 0.07161,-0.0141 0.04374,-0.0106 0.06985,-0.0169 0.06985,-0.067 v -0.14922 c 0,-0.0395 -0.03281,-0.0681 -0.08043,-0.0681 v 0 c -0.367594,0.0215 -0.777875,0.043 -1.034697,0.043 -0.154516,0 -0.394405,-0.0109 -0.648758,-0.0222 -0.18027,-0.008 -0.363008,-0.0166 -0.516467,-0.0208 -0.02787,0 -0.0575,0.0236 -0.0575,0.0681 v 0.16016 c 0,0.0296 0.0042,0.0596 0.06385,0.079 0.01023,0.001 0.02505,0.003 0.04339,0.004 0.116769,0.01 0.427567,0.036 0.531283,0.17498 0.07761,0.0959 0.08855,0.18168 0.08855,0.44732 v 3.02507 c 0,0.27411 -0.01094,0.36195 -0.08855,0.45861 -0.104422,0.13123 -0.418394,0.16298 -0.536222,0.17498 -0.01623,0.001 -0.02928,0.003 -0.04621,0.006 -0.04621,0.0162 -0.05609,0.03 -0.05609,0.0769 v 0.16016 c 0,0.0445 0.02963,0.0681 0.05962,0.0681 0.351014,-0.0208 0.878064,-0.0423 1.152172,-0.0423 0.12947,0 0.588433,0.003 1.04775,0.0427 0.02752,0 0.05715,-0.024 0.05715,-0.0684 v -0.14923 c 0,-0.0296 -0.0046,-0.06 -0.06244,-0.0783 l -0.01411,-0.002 c -0.264936,-0.0377 -0.443794,-0.1023 -0.531283,-0.18944 -0.07655,-0.0854 -0.07655,-0.18697 -0.07655,-0.4572 v -1.49296 h 2.183695 v 1.49296 c 0,0.26952 0,0.37042 -0.08678,0.45685 -0.08008,0.0864 -0.260703,0.15028 -0.536928,0.18944 l -0.02399,0.004 c -0.05362,0.0169 -0.05786,0.0473 -0.05786,0.0769 v 0.14923 c 0,0.0445 0.02928,0.0681 0.06033,0.0681 h 3.53e-4 c 0.362655,-0.0314 0.782814,-0.0423 1.054805,-0.0423 0.281517,0 0.812448,0.0215 1.163109,0.0423 l 0.0021,3.5e-4 c 0.02752,0 0.05715,-0.024 0.05715,-0.0684 v -0.16016 c 0,-0.0469 -0.0099,-0.0607 -0.06315,-0.0787 -0.0095,-0.001 -0.02258,-0.002 -0.03845,-0.004 -0.11818,-0.012 -0.4318,-0.0437 -0.536927,-0.17498 -0.07761,-0.0967 -0.08855,-0.18486 -0.08855,-0.45861 v -3.02507 c 0,-0.26529 0.01094,-0.35101 0.0889,-0.44838 0.10407,-0.13794 0.414514,-0.16404 0.531284,-0.17392 0.01799,-10e-4 0.03316,-0.003 0.0508,-0.006 0.05186,-0.0176 0.05609,-0.0476 0.05609,-0.0773 v -0.16016 c 0,-0.0448 -0.02857,-0.0681 -0.05821,-0.0681"
         style="fill:#1d1d1b;fill-opacity:1;fill-rule:nonzero;stroke:none;stroke-width:0.35277778"
         id="path10690"
         inkscape:connector-curvature="0" />
      <path
         d="m 90.143217,171.15703 h -0.02434 l -0.02611,0.066 c -0.189442,0.4699 -0.32632,0.80962 -1.0287,0.80962 -0.354542,0 -0.842786,-0.0208 -0.988836,-0.20143 -0.07444,-0.0829 -0.08678,-0.19191 -0.08678,-0.47802 v -1.2573 h 0.861484 c 0.271286,0 0.379589,0.17675 0.445205,0.72743 l 0.0039,0.0318 h 0.03175 c 0.150989,0 0.26035,0 0.26035,-0.11183 0,-0.0833 -0.0035,-0.17639 -0.0078,-0.28575 -0.006,-0.15416 -0.01341,-0.34537 -0.01341,-0.58984 0,-0.17181 0.01129,-0.49883 0.01729,-0.67451 0.0025,-0.0639 0.0039,-0.10795 0.0039,-0.11607 0,-0.097 -0.07514,-0.10089 -0.26035,-0.10089 h -0.03175 l -0.0039,0.0318 c -0.06456,0.54116 -0.168628,0.70591 -0.445205,0.70591 H 87.98845 v -1.397 c 0,-0.2212 0.01587,-0.23566 0.110067,-0.32068 0.03881,-0.0349 0.380647,-0.0705 0.676981,-0.0705 0.775405,0 0.970138,0.31115 1.033286,0.8128 l 0.0039,0.0314 h 0.03175 c 0.09948,0 0.249414,0 0.249414,-0.0995 0,-0.0141 -0.0011,-0.0642 -0.0025,-0.13123 -0.0032,-0.13688 -0.0078,-0.34573 -0.0078,-0.46743 v -0.53975 l -0.03704,7e-4 c -0.17145,0.005 -0.328789,0.009 -0.479425,0.013 -0.59302,0.0162 -1.105253,0.0307 -2.053519,0.0307 -0.166864,0 -0.337609,-0.01 -0.518937,-0.0201 -0.159808,-0.009 -0.325261,-0.0187 -0.517525,-0.0236 -0.0889,0 -0.0889,0.0579 -0.0889,0.0797 v 0.14887 c 0,0.0829 0.03669,0.10054 0.06738,0.10054 0.146756,0 0.493183,0.0466 0.566208,0.10936 0.02963,0.0226 0.06033,0.0459 0.06033,0.49601 v 2.98132 c 0,0.44803 -0.0381,0.49566 -0.07479,0.54187 l -0.0071,0.01 c -0.01799,0.0363 -0.219781,0.09 -0.555625,0.11853 -0.05644,0 -0.05644,0.0501 -0.05644,0.0688 v 0.15946 c 0,0.0381 0.01129,0.0755 0.100895,0.0896 0.185561,-0.005 0.360892,-0.0138 0.530225,-0.0226 0.207433,-0.0102 0.402872,-0.0201 0.580319,-0.0201 0.25012,0 1.570214,0.0113 2.531886,0.0427 l 0.02787,10e-4 0.0081,-0.0268 c 0.0575,-0.1965 0.09843,-0.36795 0.129116,-0.53798 0.04057,-0.20567 0.09631,-0.57609 0.09631,-0.62654 0,-0.0893 -0.08361,-0.0893 -0.249767,-0.0893"
         style="fill:#1d1d1b;fill-opacity:1;fill-rule:nonzero;stroke:none;stroke-width:0.35277778"
         id="path10694"
         inkscape:connector-curvature="0" />
      <path
         d="m 93.623687,170.32313 h -1.325033 c 0.20073,-0.48472 0.375708,-0.94403 0.53093,-1.35114 0.04904,-0.12912 0.09631,-0.25294 0.141817,-0.37147 0.05292,0.14252 0.106539,0.28857 0.160867,0.43638 0.15875,0.4318 0.322438,0.87807 0.491419,1.28623 m 2.093383,1.80763 -0.02858,-0.007 c -0.06174,-0.0141 -0.1905,-0.0427 -0.250119,-0.0854 -0.158397,-0.0952 -0.272345,-0.23883 -0.530931,-0.83855 -0.222955,-0.51506 -0.723194,-1.73073 -1.485547,-3.61174 -0.03704,-0.0991 -0.07161,-0.12983 -0.214842,-0.12983 -0.159808,0 -0.211666,0.0727 -0.22613,0.12947 -0.482247,1.24566 -1.267883,3.11997 -1.751189,4.17654 -0.07267,0.14605 -0.2286,0.28504 -0.369005,0.32597 -0.04692,0.0233 -0.08714,0.0275 -0.154517,0.0346 l -0.05433,0.006 c -0.05644,0.0183 -0.05644,0.0653 -0.05644,0.0878 v 0.14958 c 0,0.0201 0,0.0674 0.04974,0.0674 h 3.53e-4 c 0.185208,-0.0205 0.475192,-0.0423 0.733425,-0.0423 0.305506,0 0.604661,0.0212 0.884767,0.0427 l 0.0388,0.003 v -0.26599 l -0.03493,-0.001 c -0.416278,-0.0109 -0.499886,-0.11712 -0.499886,-0.2854 0,-0.0402 0.0049,-0.14781 0.05115,-0.27481 l 0.344311,-0.9077 h 1.575858 l 0.397581,0.96238 c 0.04163,0.0935 0.06032,0.16475 0.06032,0.23107 0,0.18838 -0.1651,0.24165 -0.469547,0.27446 l -0.0321,0.004 v 0.26388 l 0.0388,-0.003 c 0.352778,-0.0286 0.669925,-0.0427 0.969434,-0.0427 0.182386,0 0.406753,0.012 0.623358,0.0236 0.139347,0.007 0.276931,0.0148 0.401814,0.019 h 0.0011 c 0.0568,0 0.0568,-0.0374 0.0568,-0.0677 v -0.14958 c 0,-0.0413 -0.0247,-0.0741 -0.0695,-0.0885"
         style="fill:#1d1d1b;fill-opacity:1;fill-rule:nonzero;stroke:none;stroke-width:0.35277778"
         id="path10698"
         inkscape:connector-curvature="0" />
      <path
         d="m 97.661688,167.96365 c 0.107244,-0.0554 0.339725,-0.0804 0.519289,-0.0804 0.646642,0 0.947561,0.29069 0.947561,0.9151 0,0.77752 -0.335139,1.13983 -1.0541,1.13983 -0.178858,0 -0.3175,-0.0116 -0.41275,-0.0346 z m 3.273422,4.24462 c -0.0173,-0.007 -0.0332,-0.0134 -0.0451,-0.0254 l -0.0314,-0.0173 c -0.0829,-0.0416 -0.18662,-0.0928 -0.29386,-0.18909 -0.43321,-0.32068 -0.928515,-1.07668 -1.290465,-1.62807 -0.0695,-0.10619 -0.134408,-0.20497 -0.192969,-0.2921 0.613833,-0.23213 1.038574,-0.73942 1.038574,-1.24707 0,-0.58244 -0.297388,-1.2767 -1.714144,-1.2767 -0.176389,0 -0.582083,0.0138 -0.940152,0.0261 -0.273756,0.01 -0.510117,0.0176 -0.588081,0.0176 h -0.694972 c -0.02963,0 -0.09984,0 -0.09984,0.0681 v 0.15945 c 0,0.0455 0.0194,0.054 0.05962,0.0677 0.05009,0.0113 0.128058,0.0176 0.210608,0.024 0.129117,0.0102 0.324203,0.0258 0.35807,0.0709 0.02505,0.0335 0.04515,0.0607 0.04515,0.50059 v 2.99226 c 0,0.44133 -0.02822,0.48684 -0.05891,0.53729 -0.03316,0.0533 -0.244828,0.0899 -0.371123,0.11183 -0.04445,0.008 -0.08572,0.0148 -0.123119,0.0229 -0.03704,0.0127 -0.05609,0.0212 -0.05609,0.0663 v 0.16016 c 0,0.0473 0.0314,0.079 0.07973,0.079 0.397933,-0.0208 0.925689,-0.0427 1.077736,-0.0427 0.118181,0 0.40887,0.012 0.689681,0.024 0.17533,0.007 0.347839,0.0145 0.475897,0.0187 0.03739,0 0.05715,-0.0445 0.05715,-0.0684 V 172.187 c 0,-0.0307 -0.02681,-0.0575 -0.05715,-0.0575 -0.14852,0 -0.590197,-0.0448 -0.699911,-0.19085 -0.0762,-0.0857 -0.09843,-0.25859 -0.108303,-0.49283 -0.0095,-0.11818 -0.0025,-0.95568 -3.53e-4,-1.14688 0.141817,0 0.411339,-0.002 0.652639,-0.0201 0.112536,0.14923 0.239889,0.38418 0.37465,0.63253 0.07585,0.14076 0.15487,0.2861 0.231422,0.41628 0.326673,0.57891 0.573264,0.9077 0.733425,0.97755 0.209198,0.0875 0.49072,0.13158 0.83644,0.13158 0.12594,0 0.26846,0 0.44908,-0.0109 0.0684,0 0.0684,-0.0829 0.0684,-0.1323 0,-0.0561 -0.0437,-0.0737 -0.0723,-0.0854"
         style="fill:#1d1d1b;fill-opacity:1;fill-rule:nonzero;stroke:none;stroke-width:0.35277778"
         id="path10702"
         inkscape:connector-curvature="0" />
      <path
         d="m 105.14206,167.53248 -0.0226,3.5e-4 c -0.40569,0.005 -0.71261,0.0141 -1.00929,0.0229 -0.34925,0.0102 -0.6791,0.0201 -1.10667,0.0201 -0.72496,0 -1.15288,-0.0109 -2.19075,-0.043 l -0.0265,-10e-4 -0.0141,0.0399 c -0.0116,0.031 -0.0279,0.0734 -0.0279,0.17886 v 0.95109 c 0,0.1972 0.13053,0.1972 0.28152,0.1972 h 0.0324 l 0.004,-0.0321 c 0.0646,-0.60255 0.24201,-0.95145 0.9585,-0.95145 h 0.49847 v 3.58705 c 0,0.27658 0,0.35066 -0.0769,0.44732 -0.12594,0.14464 -0.43956,0.16898 -0.57362,0.17921 l -0.024,0.004 c -0.0384,0.019 -0.042,0.0349 -0.042,0.0752 v 0.15028 c 0,0.0515 0.0194,0.0783 0.0596,0.0783 h 3.6e-4 c 0.35701,-0.0215 0.85125,-0.0427 1.15181,-0.0427 0.32456,0 0.76342,0.0109 1.022,0.0423 l 0.004,3.6e-4 c 0.0392,0 0.0677,-0.0332 0.0677,-0.0783 V 172.219 c 0,-0.0307 -0.004,-0.0593 -0.0639,-0.0787 -0.11572,-0.0127 -0.40005,-0.0575 -0.54363,-0.1912 -0.0762,-0.0864 -0.0762,-0.17745 -0.0762,-0.44697 v -3.58705 h 0.46601 c 0.73308,0 0.9137,0.33479 0.99131,0.95215 l 0.004,0.0296 0.03,0.002 c 0.0293,0.001 0.055,0.002 0.078,0.002 0.14922,0 0.19473,-0.0445 0.19473,-0.18874 v -0.91934 c 0,-0.11677 -0.0106,-0.18873 -0.036,-0.24024 z"
         style="fill:#1d1d1b;fill-opacity:1;fill-rule:nonzero;stroke:none;stroke-width:0.35277778"
         id="path10706"
         inkscape:connector-curvature="0" />
      <path
         d="m 109.38612,171.15675 h -0.0243 l -0.009,0.0226 c -0.21414,0.53093 -0.393,0.85372 -1.06716,0.85372 -0.4258,0 -0.84067,-0.0219 -0.98954,-0.18098 -0.11888,-0.12841 -0.11888,-0.2547 -0.11888,-0.44555 v -3.01167 c -7.1e-4,-0.20955 -10e-4,-0.29633 0.0758,-0.37359 0.11501,-0.12241 0.37042,-0.16616 0.50765,-0.18979 0.0318,-0.005 0.0575,-0.01 0.0762,-0.0145 0.0378,-0.0127 0.0572,-0.0212 0.0572,-0.0667 V 167.612 c 0,-0.0759 -0.0501,-0.0794 -0.0596,-0.0794 h -3.5e-4 c -0.29528,0.0208 -0.79869,0.0434 -1.07739,0.0434 -0.19967,0 -0.56091,-0.0169 -0.85125,-0.0303 -0.11218,-0.005 -0.21343,-0.01 -0.29245,-0.0134 -0.0205,0 -0.0681,0.008 -0.0681,0.0797 v 0.14922 c 0,0.0307 0.004,0.0593 0.0635,0.0783 0.0113,0.001 0.0272,0.003 0.0473,0.005 0.127,0.0113 0.42474,0.0374 0.52775,0.17462 0.078,0.0977 0.0892,0.18345 0.0892,0.44838 v 2.99226 c 0,0.26141 -0.0448,0.4251 -0.0899,0.47061 -0.12065,0.16087 -0.33832,0.17921 -0.46391,0.1905 -0.0367,0.0127 -0.0557,0.0215 -0.0557,0.0667 v 0.15981 c 0,0.0229 0,0.0709 0.0699,0.0886 l 0.005,0.001 h 0.005 c 0.0998,-0.004 0.23777,-0.009 0.38559,-0.0152 0.31397,-0.0127 0.66957,-0.0275 0.82091,-0.0275 0.27764,0 1.7085,0.0208 2.43593,0.0427 l 0.0296,10e-4 0.006,-0.0286 c 0.0201,-0.0847 0.0399,-0.17886 0.0614,-0.27764 0.024,-0.11359 0.0494,-0.23353 0.0783,-0.35454 0.0498,-0.242 0.0967,-0.50376 0.0967,-0.53022 0,-0.0857 -0.10302,-0.09 -0.27129,-0.09"
         style="fill:#1d1d1b;fill-opacity:1;fill-rule:nonzero;stroke:none;stroke-width:0.35277778"
         id="path10710"
         inkscape:connector-curvature="0" />
      <path
         d="m 112.82859,170.32313 h -1.32362 c 0.19685,-0.47801 0.36971,-0.93169 0.52281,-1.33385 0.0519,-0.13512 0.10125,-0.26494 0.14888,-0.38876 0.054,0.14569 0.10901,0.29527 0.16439,0.44626 0.15769,0.42863 0.32032,0.87136 0.48754,1.27635 m 2.09374,1.80763 -0.0293,-0.007 c -0.0617,-0.0138 -0.1905,-0.0427 -0.24942,-0.085 -0.15734,-0.0945 -0.27164,-0.23777 -0.53128,-0.83855 -0.34184,-0.79129 -1.22308,-2.9651 -1.48449,-3.6121 -0.0374,-0.0988 -0.0723,-0.12947 -0.21519,-0.12947 -0.15981,0 -0.21202,0.0727 -0.22614,0.12947 -0.53622,1.38572 -1.32679,3.24732 -1.75118,4.17654 -0.0734,0.14605 -0.22931,0.28504 -0.36901,0.32597 -0.0473,0.0233 -0.0875,0.0275 -0.15452,0.0342 l -0.0543,0.007 c -0.0572,0.0183 -0.0572,0.0653 -0.0572,0.0878 v 0.14958 c 0,0.0183 0,0.0674 0.0501,0.0674 h 3.5e-4 c 0.18556,-0.0205 0.47555,-0.0423 0.73378,-0.0423 0.30374,0 0.59161,0.0201 0.88477,0.0427 l 0.0384,0.003 v -0.26599 l -0.0346,-0.001 c -0.41628,-0.0109 -0.50024,-0.11712 -0.50024,-0.2854 0,-0.0406 0.005,-0.14922 0.0519,-0.27481 l 0.3436,-0.9077 h 1.57586 l 0.39793,0.96238 c 0.042,0.096 0.0603,0.1651 0.0603,0.23107 0,0.18838 -0.16545,0.24165 -0.47061,0.27446 l -0.0321,0.004 v 0.26388 l 0.0388,-0.003 c 0.35348,-0.0286 0.67063,-0.0427 0.96978,-0.0427 0.18204,0 0.4064,0.012 0.62336,0.0236 0.1397,0.007 0.27764,0.0148 0.40252,0.019 h 10e-4 c 0.0564,0 0.0564,-0.0374 0.0564,-0.0677 v -0.14958 c 0,-0.0416 -0.0254,-0.0741 -0.0699,-0.0885"
         style="fill:#1d1d1b;fill-opacity:1;fill-rule:nonzero;stroke:none;stroke-width:0.35277778"
         id="path10714"
         inkscape:connector-curvature="0" />
      <path
         d="m 119.8222,167.57577 c -0.12665,0 -0.51117,0 -1.00189,-0.0427 l -0.0388,-0.004 v 0.27516 l 0.0328,0.003 c 0.61454,0.0505 0.74613,0.30657 0.82339,0.89818 0.0519,0.47766 0.1016,1.75824 0.11536,2.47156 -0.89818,-0.92781 -1.89971,-2.14419 -3.10974,-3.6315 l -0.0123,-0.0152 -0.0194,0.002 c -0.25153,0.0282 -0.49459,0.0427 -0.72355,0.0427 -0.13405,0 -0.26811,-0.0106 -0.41028,-0.0215 -0.10442,-0.008 -0.21202,-0.0166 -0.32561,-0.0215 l -0.037,-0.001 v 0.21907 c 0,0.0699 0.0229,0.0967 0.0949,0.11042 0.29457,0.0512 0.67451,0.30304 0.83503,0.55245 0,1.26189 -0.0222,2.69734 -0.0318,2.91642 -0.0261,0.48225 -0.097,0.59125 -0.1263,0.61595 -0.12876,0.11148 -0.3429,0.1591 -0.42368,0.17709 -0.0173,0.004 -0.0296,0.007 -0.0353,0.009 -0.0557,0.0194 -0.0557,0.0762 -0.0557,0.0974 v 0.21237 l 0.0399,-0.005 c 0.28963,-0.0339 0.71155,-0.043 0.9151,-0.043 0.23178,0 0.59584,0.0215 0.94862,0.043 l 0.0381,0.002 v -0.26423 l -0.0332,-0.002 c -0.66005,-0.0515 -0.74718,-0.37712 -0.77893,-1.05762 -0.0325,-0.40358 -0.0737,-1.68134 -0.0935,-2.38584 1.46544,1.73426 2.52377,2.87549 3.09598,3.49285 0.0864,0.0935 0.16263,0.17498 0.22719,0.24518 l 0.0106,0.0117 h 0.29739 l 0.004,-7.1e-4 c 0.0656,-0.0134 0.0924,-0.0452 0.0924,-0.10936 0,-0.1517 -0.005,-0.3242 -0.01,-0.50694 -0.006,-0.20744 -0.0113,-0.42228 -0.0113,-0.63641 0,-0.77082 0.005,-1.58645 0.008,-2.07398 10e-4,-0.22931 0.002,-0.39653 0.002,-0.47026 0,-0.50341 0.17921,-0.66075 0.3563,-0.74894 0.0709,-0.0399 0.17145,-0.0684 0.26035,-0.0935 0.0258,-0.007 0.0512,-0.0141 0.0808,-0.024 0.0483,-0.0251 0.0504,-0.14817 0.0504,-0.14922 v -0.13441 l -0.3877,0.0183 c -0.30515,0.0148 -0.54575,0.0265 -0.66322,0.0265"
         style="fill:#1d1d1b;fill-opacity:1;fill-rule:nonzero;stroke:none;stroke-width:0.35277778"
         id="path10718"
         inkscape:connector-curvature="0" />
      <path
         d="m 123.65474,172.06716 c -0.11112,0 -0.48719,-0.008 -0.65123,-0.11218 -0.0822,-0.0582 -0.1912,-0.16934 -0.1912,-0.45826 v -3.60363 c 0.26634,-0.0667 0.65228,-0.0667 0.88617,-0.0667 1.19627,0 1.82845,0.76306 1.82845,2.20662 0,1.83586 -1.30916,2.03412 -1.87219,2.03412 m 0.27129,-4.59528 c -0.23637,0 -0.63324,0.013 -0.9832,0.0243 -0.29315,0.009 -0.57008,0.0183 -0.70767,0.0183 h -0.89923 c -0.0543,0 -0.10125,0 -0.10125,0.0582 v 0.16298 c 0,0.0473 0.0219,0.067 0.0674,0.067 10e-4,0 0.002,0 0.003,0 0.0466,0.0106 0.11289,0.018 0.18344,0.0254 0.11536,0.0123 0.30869,0.0332 0.33832,0.0804 l 0.007,0.009 c 0.0258,0.0325 0.0617,0.0773 0.0617,0.50094 v 3.05612 c 0,0.42157 -0.0388,0.46919 -0.0801,0.52034 -0.0353,0.0476 -0.23777,0.0787 -0.35878,0.097 -0.0688,0.0109 -0.12805,0.0198 -0.16615,0.031 -0.0561,0.0205 -0.0561,0.0533 -0.0561,0.0991 v 0.12982 c 0,0.0222 -3.5e-4,0.09 0.0593,0.09 h 3.5e-4 c 0.4311,-0.0226 0.83785,-0.0427 1.07068,-0.0427 0.12489,0 0.38065,0.0109 0.62795,0.0215 0.25188,0.0106 0.48965,0.0212 0.60854,0.0212 1.47144,0 2.96157,-0.89464 2.96157,-2.60385 0,-1.48167 -0.98601,-2.36643 -2.63701,-2.36643"
         style="fill:#1d1d1b;fill-opacity:1;fill-rule:nonzero;stroke:none;stroke-width:0.35277778"
         id="path10722"
         inkscape:connector-curvature="0" />
      <path
         d="m 98.435576,175.50823 c 0.287867,0 0.472369,-0.13194 0.472369,-0.42933 0,-0.29739 -0.183797,-0.4251 -0.500238,-0.42545 h -0.401462 l -3.52e-4,0.85443 z m -0.430389,1.19909 h 0.500592 c 0.321028,3.5e-4 0.514703,-0.13652 0.514703,-0.45261 3.52e-4,-0.24095 -0.14605,-0.40182 -0.518937,-0.40182 l -0.495652,-3.5e-4 z m 0.841022,-1.05727 c 0.344664,0.0332 0.613481,0.25047 0.613481,0.6424 0,0.47696 -0.30727,0.77894 -0.987072,0.77859 l -0.9017,-7.1e-4 0.0014,-2.78095 0.911225,7.1e-4 c 0.561622,3.5e-4 0.8636,0.23671 0.863247,0.70873 0,0.36336 -0.207786,0.58526 -0.500592,0.63712 z"
         style="fill:#1d1d1b;fill-opacity:1;fill-rule:nonzero;stroke:none;stroke-width:0.35277778"
         id="path10726"
         inkscape:connector-curvature="0" />
      <path
         d="m 101.21578,175.9535 0.88759,3.5e-4 -0.21202,-0.62336 c -0.15558,-0.43426 -0.21696,-0.73201 -0.21696,-0.73201 h -0.0187 c 0,0 -0.0663,0.29281 -0.21766,0.72708 z m 1.01494,0.35913 -1.13771,-3.6e-4 -0.26493,0.75989 h -0.45332 l 1.0167,-2.7806 0.57115,3.6e-4 1.00401,2.7813 h -0.46708 z"
         style="fill:#1d1d1b;fill-opacity:1;fill-rule:nonzero;stroke:none;stroke-width:0.35277778"
         id="path10730"
         inkscape:connector-curvature="0" />
      <path
         d="m 105.60638,175.88499 c 0.16475,0.24553 0.31609,0.52917 0.31609,0.52917 h 0.019 c 0,0 -0.0236,-0.2974 -0.0236,-0.647 l 7.1e-4,-1.4732 0.43427,3.6e-4 -0.001,2.78094 -0.42968,-3.5e-4 -1.10878,-1.58679 c -0.17498,-0.25048 -0.32103,-0.5387 -0.32103,-0.5387 h -0.0187 c 0,0 0.0279,0.2974 0.0279,0.65652 l -0.001,1.46826 -0.43427,-3.5e-4 0.002,-2.78095 0.44379,3.6e-4 z"
         style="fill:#1d1d1b;fill-opacity:1;fill-rule:nonzero;stroke:none;stroke-width:0.35277778"
         id="path10734"
         inkscape:connector-curvature="0" />
      <path
         d="m 109.32089,177.07678 -0.87277,-1.22343 h -0.21731 l -3.6e-4,1.22272 h -0.43497 l 0.001,-2.78094 0.43498,3.5e-4 -7.1e-4,1.18004 0.23107,3.5e-4 0.8128,-1.17968 h 0.50976 l -0.96837,1.34972 1.03822,1.43122 z"
         style="fill:#1d1d1b;fill-opacity:1;fill-rule:nonzero;stroke:none;stroke-width:0.35277778"
         id="path10738"
         inkscape:connector-curvature="0" />
      <path
         d="m 126.56551,175.6583 c 0,0.24342 -0.12771,0.44097 -0.28363,0.44097 h -14.47483 c -0.15698,0 -0.28363,-0.19755 -0.28363,-0.44097 0,-0.24342 0.12665,-0.44097 0.28363,-0.44097 h 14.47342 c 0.15733,0 0.28504,0.19755 0.28504,0.44097"
         style="fill:#006935;fill-opacity:1;fill-rule:nonzero;stroke:none;stroke-width:0.35277778"
         id="path10742"
         inkscape:connector-curvature="0" />
      <path
         d="m 95.607604,175.6583 c 0,0.24342 -0.127706,0.44097 -0.283281,0.44097 H 80.849146 c -0.156986,0 -0.283633,-0.19755 -0.283633,-0.44097 0,-0.24342 0.126647,-0.44097 0.283633,-0.44097 H 95.32256 c 0.157338,0 0.285044,0.19755 0.285044,0.44097"
         style="fill:#006935;fill-opacity:1;fill-rule:nonzero;stroke:none;stroke-width:0.35277778"
         id="path10746"
         inkscape:connector-curvature="0" />
    </g>
  </g>
</svg>
