<svg width="96" height="96" viewBox="0 0 96 96" xmlns="http://www.w3.org/2000/svg">
    <g fill="none" fill-rule="evenodd">
        <path fill="#221F1F" d="M89.756 86.056z"/>
        <path d="m10.083 10.1-7.07 7.069A10.289 10.289 0 0 0 0 24.445V96h85.86V85.918H10.082V10.1z" fill="#258752"/>
        <path d="m10.097 10.082 7.069-7.068A10.29 10.29 0 0 1 24.442 0H96v85.856H85.917V10.082h-75.82z" fill="#19E480"/>
        <g fill="#000">
            <path d="M31.806 56.749h-5.01l-6.794-8.873v8.873h-3.944V37.298h3.944v8.5l6.608-8.5h4.716l-7.54 9.193zM33.112 56.749h3.837V43.027h-3.837v13.722zm4.21-17.533c0 1.253-1.013 2.212-2.292 2.212-1.305 0-2.291-.96-2.291-2.212 0-1.252.986-2.238 2.291-2.238 1.28 0 2.292.986 2.292 2.238zM57.813 43.027h3.757L56.8 56.749h-3.65l-3.038-8.553-3.038 8.553h-3.65l-4.77-13.722h3.917l2.852 8.526 2.957-8.526h3.624l2.958 8.526zM63.09 56.749h3.837V43.027H63.09v13.722zm4.21-17.533c0 1.253-1.013 2.212-2.292 2.212-1.305 0-2.291-.96-2.291-2.212 0-1.252.986-2.238 2.291-2.238 1.28 0 2.292.986 2.292 2.238zM26.45 72.925c0-2.211-1.36-3.837-3.331-3.837-2.052 0-3.464 1.626-3.464 3.837 0 2.212 1.412 3.864 3.464 3.864 1.972 0 3.33-1.652 3.33-3.864m3.811.027c0 4.077-2.958 7.087-6.555 7.087a5.544 5.544 0 0 1-3.81-1.492v1.226h-3.837V60.322h3.837v7.008a5.447 5.447 0 0 1 3.81-1.519c3.597 0 6.555 3.037 6.555 7.14M42.224 72.925c0-2.211-1.412-3.837-3.464-3.837-1.971 0-3.33 1.626-3.33 3.837 0 2.212 1.359 3.864 3.33 3.864 2.052 0 3.464-1.652 3.464-3.864zm-.24-6.874h3.838v13.722h-3.838v-1.226a5.544 5.544 0 0 1-3.81 1.492c-3.597 0-6.555-3.01-6.555-7.087 0-4.104 2.958-7.14 6.555-7.14 1.492 0 2.798.558 3.81 1.518v-1.28zM60.637 71.06v8.713H56.8v-7.754c0-1.918-.693-2.93-2.238-2.93-1.599 0-2.398 1.065-2.398 2.93v7.754h-3.837V66.05h3.81v1.252c.826-.96 2.158-1.519 3.49-1.519 3.172 0 5.01 2.025 5.01 5.276M76.332 79.773h-4.61L66.9 73.565v6.208h-3.837V60.322H66.9v11.111l4.663-5.382h4.61l-5.649 6.341zM81.955 77.668c0 1.279-1.013 2.265-2.292 2.265-1.306 0-2.291-.986-2.291-2.265 0-1.279.985-2.265 2.29-2.265 1.28 0 2.293.986 2.293 2.265"/>
        </g>
    </g>
</svg>
